<svg xmlns="http://www.w3.org/2000/svg" xmlns:xlink="http://www.w3.org/1999/xlink" version="1.1" width="841.89pt" height="346.418pt" viewBox="0 0 841.89 346.418">
<defs>
<clipPath id="clip_1">
<path transform="matrix(1,0,0,-1,0,346.418)" d="M0 346.418H841.89V0H0Z"/>
</clipPath>
</defs>
<g id="layer_1" data-name="Blauer Hintergrund">
</g>
<g id="layer_1" data-name="Logos">
<g clip-path="url(#clip_1)">
<path transform="matrix(1,0,0,-1,292.136,123.325809)" d="M0 0C.853 0 1.666 .086 2.439 .26 3.213 .433 3.899 .7 4.5 1.06 5.1 1.42 5.58 1.886 5.939 2.46 6.3 3.033 6.479 3.72 6.479 4.52 6.479 5.293 6.353 5.913 6.1 6.38 5.846 6.846 5.506 7.2 5.08 7.44 4.653 7.68 4.16 7.84 3.6 7.92 3.04 8 2.453 8.04 1.84 8.04H-4.12L-5.8 0ZM4.24 12.92C5.52 12.946 6.686 12.833 7.74 12.58 8.793 12.326 9.693 11.9 10.439 11.3 11.186 10.7 11.76 9.92 12.16 8.96 12.56 8 12.76 6.826 12.76 5.44 12.76 4.48 12.6 3.56 12.279 2.68 11.96 1.8 11.506 1.02 10.92 .34 10.333-.34 9.64-.907 8.84-1.36 8.04-1.814 7.16-2.107 6.2-2.24V-2.32C7.373-2.694 8.16-3.34 8.56-4.26 8.96-5.18 9.16-6.214 9.16-7.36 9.16-8 9.126-8.767 9.06-9.66 8.993-10.554 8.96-11.44 8.96-12.32 8.96-12.96 8.986-13.567 9.04-14.14 9.093-14.714 9.2-15.214 9.359-15.64H3.24C3.16-15.294 3.093-14.967 3.04-14.66 2.986-14.354 2.96-14.04 2.96-13.72 2.96-12.76 3.013-11.794 3.12-10.82 3.226-9.847 3.279-8.88 3.279-7.92 3.279-7.227 3.18-6.66 2.979-6.22 2.779-5.78 2.5-5.427 2.14-5.16 1.779-4.894 1.346-4.714 .84-4.62 .333-4.527-.228-4.48-.84-4.48H-6.76L-9.12-15.64H-15.36L-9.4 12.92Z" fill="#00a1e4"/>
<path transform="matrix(1,0,0,-1,312.635,132.3658)" d="M0 0C.173-.56 .434-1.054 .78-1.48 1.126-1.907 1.554-2.247 2.061-2.5 2.566-2.754 3.153-2.88 3.82-2.88 4.887-2.88 5.8-2.594 6.561-2.02 7.32-1.447 7.946-.727 8.44 .14 8.934 1.006 9.3 1.946 9.54 2.96 9.78 3.973 9.9 4.92 9.9 5.8 9.9 7.186 9.586 8.293 8.96 9.12 8.333 9.946 7.26 10.36 5.74 10.36 4.7 10.36 3.8 10.073 3.04 9.5 2.28 8.926 1.66 8.213 1.18 7.36 .7 6.506 .34 5.58 .101 4.58-.14 3.58-.26 2.64-.26 1.76-.26 1.146-.174 .56 0 0M-5.12 6.74C-4.573 8.3-3.787 9.666-2.76 10.84-1.733 12.013-.486 12.94 .98 13.62 2.446 14.3 4.101 14.64 5.94 14.64 7.354 14.64 8.653 14.46 9.84 14.1 11.026 13.74 12.047 13.2 12.9 12.48 13.753 11.76 14.413 10.853 14.88 9.76 15.347 8.666 15.58 7.373 15.58 5.88 15.58 4.066 15.307 2.366 14.76 .78 14.213-.807 13.42-2.187 12.38-3.36 11.34-4.534 10.08-5.454 8.601-6.12 7.12-6.786 5.434-7.12 3.54-7.12 .66-7.12-1.64-6.38-3.359-4.9-5.08-3.42-5.939-1.2-5.939 1.76-5.939 3.52-5.667 5.18-5.12 6.74" fill="#00a1e4"/>
<path transform="matrix(1,0,0,-1,341.8156,110.4059)" d="M0 0-6.08-28.56H-11.721L-5.681 0Z" fill="#00a1e4"/>
<path transform="matrix(1,0,0,-1,342.2942,122.086)" d="M0 0 .8 3.8H4.2C4.467 5.133 4.76 6.3 5.08 7.3 5.4 8.3 5.84 9.146 6.4 9.84 6.96 10.533 7.7 11.053 8.62 11.4 9.54 11.747 10.746 11.92 12.24 11.92 12.854 11.92 13.474 11.893 14.101 11.84 14.727 11.786 15.347 11.707 15.96 11.6L15.08 7.52C14.786 7.546 14.48 7.573 14.16 7.6 13.84 7.626 13.533 7.64 13.24 7.64 12.521 7.64 11.974 7.553 11.601 7.38 11.227 7.207 10.94 6.953 10.74 6.62 10.54 6.286 10.387 5.886 10.28 5.42 10.173 4.953 10.04 4.413 9.88 3.8H13.92L13.12 0H9.04L5.48-16.88H-.2L3.36 0Z" fill="#00a1e4"/>
<path transform="matrix(1,0,0,-1,382.634,137.3458)" d="M0 0C-1.614-1.507-3.968-2.26-7.061-2.26-8.181-2.26-9.261-2.14-10.301-1.9-11.341-1.66-12.261-1.267-13.061-.72-13.86-.174-14.5 .54-14.98 1.42-15.461 2.3-15.7 3.366-15.7 4.62-15.7 5.393-15.646 6.133-15.54 6.84-15.434 7.546-15.313 8.273-15.181 9.02H-9.5C-9.634 8.406-9.761 7.806-9.881 7.22-10 6.633-10.061 6.113-10.061 5.66-10.061 4.78-9.747 4.113-9.12 3.66-8.494 3.206-7.78 2.98-6.98 2.98-6.181 2.98-5.534 3.113-5.04 3.38-4.547 3.646-4.147 4-3.841 4.44-3.534 4.88-3.301 5.4-3.141 6-2.98 6.6-2.82 7.22-2.66 7.86L1.3 26.94H7.619L3.38 6.5C2.739 3.673 1.612 1.506 0 0" fill="#00a1e4"/>
<path transform="matrix(1,0,0,-1,402.4944,129.8258)" d="M0 0C-.827-.094-1.654-.167-2.48-.22-3.014-.274-3.534-.36-4.04-.48-4.547-.6-4.994-.78-5.38-1.02-5.767-1.26-6.08-1.587-6.32-2-6.561-2.414-6.68-2.94-6.68-3.58-6.68-4.354-6.367-4.934-5.74-5.32-5.114-5.707-4.387-5.9-3.561-5.9-2.68-5.9-1.94-5.76-1.34-5.48-.74-5.2-.233-4.84 .18-4.4 .593-3.96 .92-3.46 1.16-2.9 1.4-2.34 1.6-1.78 1.76-1.22L2.32 .78C1.6 .353 .826 .093 0 0M-8.48 8.52C-7.867 9.386-7.12 10.086-6.24 10.62-5.36 11.153-4.374 11.533-3.28 11.76-2.187 11.986-1.054 12.1 .12 12.1 1.053 12.1 2.026 12.033 3.04 11.9 4.053 11.766 4.986 11.506 5.84 11.12 6.693 10.733 7.393 10.186 7.939 9.48 8.486 8.773 8.746 7.833 8.72 6.66 8.72 5.673 8.573 4.513 8.28 3.18L6.439-5.14C6.333-5.514 6.26-5.974 6.22-6.52 6.18-7.067 6.16-7.54 6.16-7.94 6.16-8.287 6.227-8.687 6.36-9.14H.68V-7.1C-.094-7.98-1.04-8.627-2.16-9.04-3.28-9.453-4.44-9.66-5.64-9.66-6.76-9.66-7.74-9.513-8.58-9.22-9.42-8.927-10.12-8.534-10.68-8.04-11.24-7.547-11.654-6.974-11.92-6.32-12.187-5.667-12.32-4.98-12.32-4.26-12.32-2.26-11.634-.66-10.26 .54-8.887 1.74-6.947 2.486-4.44 2.78-3.107 2.94-1.947 3.06-.96 3.14 .026 3.22 .846 3.346 1.5 3.52 2.153 3.693 2.64 3.946 2.96 4.28 3.28 4.613 3.439 5.113 3.439 5.78 3.439 6.313 3.32 6.74 3.08 7.06 2.84 7.38 2.54 7.633 2.18 7.82 1.82 8.006 1.433 8.133 1.02 8.2 .606 8.266 .213 8.3-.16 8.3-1.174 8.3-2.08 8.053-2.88 7.56-3.68 7.066-4.174 6.3-4.36 5.26H-9.68C-9.494 6.566-9.094 7.653-8.48 8.52" fill="#00a1e4"/>
<path transform="matrix(1,0,0,-1,423.174,118.2858)" d="M0 0-.641-2.88H-.561C1.279-.587 3.692 .56 6.68 .56 10.706 .56 12.72-1.294 12.72-5 12.72-5.214 12.692-5.487 12.64-5.82 12.586-6.154 12.526-6.494 12.46-6.84 12.393-7.187 12.326-7.514 12.26-7.82 12.192-8.127 12.146-8.374 12.12-8.56L9.56-20.68H3.88L6.399-8.56C6.453-8.24 6.526-7.814 6.62-7.28 6.713-6.747 6.76-6.334 6.76-6.04 6.76-5.427 6.473-4.92 5.899-4.52 5.326-4.12 4.706-3.92 4.04-3.92 3.186-3.92 2.433-4.087 1.779-4.42 1.126-4.754 .566-5.187 .1-5.72-.367-6.254-.754-6.867-1.061-7.56-1.367-8.254-1.601-8.96-1.761-9.68L-4.08-20.68H-9.721L-5.44 0Z" fill="#00a1e4"/>
<path transform="matrix(1,0,0,-1,452.1535,122.2657)" d="M0 0C-.493 .493-1.3 .74-2.42 .74-3.434 .74-4.267 .586-4.92 .28-5.573-.027-5.899-.554-5.899-1.3-5.899-1.754-5.707-2.14-5.319-2.46-4.934-2.78-4.26-3.087-3.3-3.38L-.46-4.3C.313-4.54 1.026-4.82 1.681-5.14 2.333-5.46 2.906-5.854 3.4-6.32 3.894-6.787 4.28-7.34 4.561-7.98 4.84-8.62 4.98-9.367 4.98-10.22 4.98-11.5 4.693-12.587 4.12-13.48 3.547-14.374 2.793-15.1 1.86-15.66 .927-16.22-.127-16.62-1.3-16.86-2.474-17.1-3.66-17.22-4.859-17.22-5.874-17.22-6.899-17.113-7.939-16.9-8.979-16.687-9.92-16.334-10.76-15.84-11.6-15.347-12.287-14.694-12.819-13.88-13.353-13.067-13.62-12.047-13.62-10.82V-9.98H-8.38V-10.66C-8.38-11.14-8.26-11.554-8.02-11.9-7.78-12.247-7.467-12.534-7.08-12.76-6.693-12.987-6.254-13.16-5.76-13.28-5.267-13.4-4.78-13.46-4.3-13.46-3.874-13.46-3.446-13.42-3.02-13.34-2.594-13.26-2.207-13.12-1.859-12.92-1.514-12.72-1.233-12.467-1.02-12.16-.807-11.854-.7-11.46-.7-10.98-.7-10.26-.887-9.754-1.26-9.46-1.634-9.167-2.127-8.914-2.74-8.7L-7.1-7.3C-7.819-7.06-8.453-6.807-9-6.54-9.547-6.274-10.014-5.94-10.399-5.54-10.787-5.14-11.08-4.66-11.28-4.1-11.479-3.54-11.58-2.847-11.58-2.02-11.58-.794-11.294 .233-10.72 1.06-10.146 1.886-9.406 2.56-8.5 3.08-7.594 3.6-6.6 3.973-5.52 4.2-4.439 4.426-3.406 4.54-2.42 4.54-1.3 4.54-.22 4.446 .82 4.26 1.86 4.073 2.773 3.733 3.561 3.24 4.347 2.746 4.967 2.073 5.42 1.22 5.873 .366 6.087-.727 6.061-2.06H.78C.753-1.18 .493-.494 0 0" fill="#00a1e4"/>
<path transform="matrix(1,0,0,-1,473.4328,122.2657)" d="M0 0C-.493 .493-1.3 .74-2.42 .74-3.434 .74-4.267 .586-4.92 .28-5.573-.027-5.899-.554-5.899-1.3-5.899-1.754-5.707-2.14-5.319-2.46-4.934-2.78-4.26-3.087-3.3-3.38L-.46-4.3C.313-4.54 1.026-4.82 1.681-5.14 2.333-5.46 2.906-5.854 3.4-6.32 3.894-6.787 4.28-7.34 4.561-7.98 4.84-8.62 4.98-9.367 4.98-10.22 4.98-11.5 4.693-12.587 4.12-13.48 3.547-14.374 2.793-15.1 1.86-15.66 .927-16.22-.127-16.62-1.3-16.86-2.474-17.1-3.66-17.22-4.859-17.22-5.874-17.22-6.899-17.113-7.939-16.9-8.979-16.687-9.92-16.334-10.76-15.84-11.6-15.347-12.287-14.694-12.819-13.88-13.353-13.067-13.62-12.047-13.62-10.82V-9.98H-8.38V-10.66C-8.38-11.14-8.26-11.554-8.02-11.9-7.78-12.247-7.467-12.534-7.08-12.76-6.693-12.987-6.254-13.16-5.76-13.28-5.267-13.4-4.78-13.46-4.3-13.46-3.874-13.46-3.446-13.42-3.02-13.34-2.594-13.26-2.207-13.12-1.859-12.92-1.514-12.72-1.233-12.467-1.02-12.16-.807-11.854-.7-11.46-.7-10.98-.7-10.26-.887-9.754-1.26-9.46-1.634-9.167-2.127-8.914-2.74-8.7L-7.1-7.3C-7.819-7.06-8.453-6.807-9-6.54-9.547-6.274-10.014-5.94-10.399-5.54-10.787-5.14-11.08-4.66-11.28-4.1-11.479-3.54-11.58-2.847-11.58-2.02-11.58-.794-11.294 .233-10.72 1.06-10.146 1.886-9.406 2.56-8.5 3.08-7.594 3.6-6.6 3.973-5.52 4.2-4.439 4.426-3.406 4.54-2.42 4.54-1.3 4.54-.22 4.446 .82 4.26 1.86 4.073 2.773 3.733 3.561 3.24 4.347 2.746 4.967 2.073 5.42 1.22 5.873 .366 6.087-.727 6.061-2.06H.78C.753-1.18 .493-.494 0 0" fill="#00a1e4"/>
<path transform="matrix(1,0,0,-1,497.2336,124.825809)" d="M0 0C-.094 .52-.274 .993-.54 1.42-.808 1.846-1.194 2.186-1.7 2.44-2.207 2.693-2.874 2.82-3.7 2.82-4.5 2.82-5.207 2.7-5.82 2.46-6.434 2.22-6.967 1.9-7.42 1.5-7.874 1.1-8.254 .633-8.561 .1-8.867-.434-9.127-.994-9.34-1.58H.14C.14-1.047 .093-.52 0 0M-9.98-5.54V-5.86-6.38C-9.98-7.58-9.607-8.554-8.86-9.3-8.114-10.047-6.967-10.42-5.42-10.42-4.86-10.42-4.36-10.334-3.92-10.16-3.48-9.987-3.094-9.767-2.761-9.5-2.427-9.234-2.134-8.927-1.88-8.58-1.627-8.234-1.395-7.9-1.181-7.58H4.5C4.046-8.754 3.513-9.78 2.899-10.66 2.286-11.54 1.553-12.28 .699-12.88-.154-13.48-1.147-13.927-2.28-14.22-3.414-14.513-4.728-14.66-6.221-14.66-7.607-14.66-8.867-14.473-10-14.1-11.134-13.727-12.101-13.16-12.9-12.4-13.7-11.64-14.32-10.7-14.761-9.58-15.2-8.46-15.42-7.154-15.42-5.66-15.42-4.007-15.154-2.414-14.62-.88-14.087 .653-13.334 2.013-12.36 3.2-11.387 4.386-10.194 5.333-8.78 6.04-7.367 6.746-5.78 7.1-4.021 7.1-2.58 7.1-1.268 6.913-.08 6.54 1.105 6.166 2.12 5.6 2.96 4.84 3.8 4.08 4.453 3.133 4.92 2 5.386 .866 5.62-.447 5.62-1.94 5.62-2.954 5.513-4.034 5.3-5.18H-9.94C-9.967-5.314-9.98-5.434-9.98-5.54" fill="#00a1e4"/>
<path transform="matrix(1,0,0,-1,514.173,118.2858)" d="M0 0-.641-2.88H-.561C1.279-.587 3.692 .56 6.68 .56 10.706 .56 12.72-1.294 12.72-5 12.72-5.214 12.692-5.487 12.64-5.82 12.586-6.154 12.526-6.494 12.46-6.84 12.393-7.187 12.326-7.514 12.26-7.82 12.192-8.127 12.146-8.374 12.12-8.56L9.56-20.68H3.88L6.399-8.56C6.453-8.24 6.526-7.814 6.62-7.28 6.713-6.747 6.76-6.334 6.76-6.04 6.76-5.427 6.473-4.92 5.899-4.52 5.326-4.12 4.706-3.92 4.04-3.92 3.186-3.92 2.433-4.087 1.779-4.42 1.126-4.754 .566-5.187 .1-5.72-.367-6.254-.754-6.867-1.061-7.56-1.367-8.254-1.601-8.96-1.761-9.68L-4.08-20.68H-9.721L-5.44 0Z" fill="#00a1e4"/>
<path transform="matrix(1,0,0,-1,562.8527,136.046)" d="M0 0C-.935-1.28-2.027-2.194-3.28-2.74-4.534-3.286-5.841-3.56-7.2-3.56-11.254-3.56-14.38-2.48-16.58-.32-18.78 1.84-19.88 4.96-19.88 9.04-19.88 11.36-19.521 13.56-18.801 15.64-18.08 17.72-17.047 19.553-15.7 21.14-14.354 22.727-12.714 23.986-10.78 24.92-8.848 25.853-6.681 26.32-4.28 26.32-2.601 26.32-1.027 26.12 .439 25.72 1.906 25.32 3.186 24.707 4.279 23.88 5.373 23.053 6.239 22.006 6.88 20.74 7.52 19.473 7.84 17.96 7.84 16.2H1.56C1.479 17.96 .933 19.207-.08 19.94-1.094 20.673-2.48 21.04-4.24 21.04-5.841 21.04-7.234 20.673-8.42 19.94-9.607 19.207-10.58 18.26-11.341 17.1-12.101 15.94-12.667 14.646-13.04 13.22-13.414 11.793-13.601 10.4-13.601 9.04-13.601 8.053-13.474 7.12-13.221 6.24-12.967 5.36-12.58 4.58-12.061 3.9-11.54 3.22-10.874 2.68-10.061 2.28-9.247 1.88-8.268 1.68-7.12 1.68-5.92 1.68-4.888 1.833-4.021 2.14-3.154 2.446-2.407 2.866-1.78 3.4-1.154 3.933-.634 4.58-.221 5.34 .192 6.1 .533 6.933 .8 7.84H-5.801L-4.801 12.52H7.319L4.04-2.92H.08V0Z" fill="#00a1e4"/>
<path transform="matrix(1,0,0,-1,581.6525,118.2858)" d="M0 0-.641-2.92H-.561C.293-1.72 1.333-.84 2.56-.28 3.786 .28 5.16 .56 6.68 .56 7.96 .56 9.053 .28 9.96-.28 10.866-.84 11.439-1.76 11.68-3.04 12.026-2.507 12.466-2.02 13-1.58 13.533-1.14 14.106-.76 14.72-.44 15.333-.12 15.979 .126 16.66 .3 17.34 .473 18.013 .56 18.68 .56 19.479 .56 20.26 .453 21.02 .24 21.779 .026 22.453-.294 23.04-.72 23.626-1.147 24.093-1.694 24.439-2.36 24.786-3.027 24.96-3.8 24.96-4.68 24.96-5.32 24.893-5.967 24.76-6.62 24.626-7.274 24.493-7.907 24.359-8.52L21.8-20.68H16.12L18.84-7.6C18.946-7.067 19-6.574 19-6.12 19-5.507 18.766-4.987 18.3-4.56 17.833-4.134 17.239-3.92 16.52-3.92 15.772-3.92 15.1-4.1 14.5-4.46 13.899-4.82 13.38-5.274 12.939-5.82 12.5-6.367 12.133-6.974 11.84-7.64 11.546-8.307 11.333-8.96 11.2-9.6L8.88-20.68H3.16L5.88-7.6C5.986-7.067 6.04-6.574 6.04-6.12 6.04-5.507 5.806-4.987 5.34-4.56 4.873-4.134 4.279-3.92 3.56-3.92 2.813-3.92 2.14-4.1 1.54-4.46 .939-4.82 .42-5.274-.021-5.82-.46-6.367-.827-6.974-1.12-7.64-1.414-8.307-1.627-8.96-1.761-9.6L-4.08-20.68H-9.721L-5.44 0Z" fill="#00a1e4"/>
<path transform="matrix(1,0,0,-1,619.3322,122.8858)" d="M0 0C-.773-.587-1.407-1.32-1.9-2.2-2.394-3.08-2.754-4.04-2.98-5.08-3.207-6.12-3.32-7.094-3.32-8-3.32-9.28-2.96-10.327-2.24-11.14-1.521-11.954-.507-12.36 .8-12.36 1.893-12.36 2.82-12.08 3.58-11.52 4.34-10.96 4.966-10.247 5.46-9.38 5.953-8.514 6.312-7.574 6.54-6.56 6.766-5.547 6.88-4.6 6.88-3.72 6.88-2.414 6.573-1.32 5.96-.44 5.346 .44 4.306 .88 2.84 .88 1.72 .88 .773 .586 0 0M1.04 12.48-1.08 2.4H-1C-.12 3.36 .78 4.06 1.7 4.5 2.62 4.94 3.76 5.16 5.12 5.16 6.453 5.16 7.586 4.926 8.52 4.46 9.453 3.993 10.22 3.36 10.82 2.56 11.42 1.76 11.859 .826 12.14-.24 12.42-1.307 12.56-2.44 12.56-3.64 12.56-5.24 12.333-6.82 11.88-8.38 11.426-9.94 10.746-11.327 9.84-12.54 8.933-13.754 7.812-14.734 6.479-15.48 5.146-16.227 3.6-16.6 1.84-16.6 .399-16.6-.914-16.333-2.101-15.8-3.287-15.267-4.134-14.28-4.641-12.84H-4.72L-5.4-16.08H-10.601L-4.641 12.48Z" fill="#00a1e4"/>
<path transform="matrix(1,0,0,-1,646.3322,110.4059)" d="M0 0-2.32-10.96H9.24L11.56 0H17.88L11.84-28.56H5.52L8.12-16.24H-3.44L-6.04-28.56H-12.32L-6.32 0Z" fill="#00a1e4"/>
<path transform="matrix(1,0,0,-1,304.5354,151.2059)" d="M0 0-1.08-5.28H-16.6L-17.88-11.4H-3.52L-4.56-16.28H-18.92L-20.399-23.28H-4.64L-5.76-28.56H-27.76L-21.8 0Z" fill="#00a1e4"/>
<path transform="matrix(1,0,0,-1,315.4264,151.2059)" d="M0 0-6.08-28.56H-11.721L-5.681 0Z" fill="#00a1e4"/>
<path transform="matrix(1,0,0,-1,330.8463,165.6258)" d="M0 0C-.094 .52-.274 .993-.54 1.42-.808 1.846-1.194 2.186-1.7 2.44-2.207 2.693-2.874 2.82-3.7 2.82-4.5 2.82-5.207 2.7-5.82 2.46-6.434 2.22-6.967 1.9-7.42 1.5-7.874 1.1-8.254 .633-8.561 .1-8.867-.434-9.127-.994-9.34-1.58H.14C.14-1.047 .093-.52 0 0M-9.98-5.54V-5.86-6.38C-9.98-7.58-9.607-8.554-8.86-9.3-8.114-10.047-6.967-10.42-5.42-10.42-4.86-10.42-4.36-10.334-3.92-10.16-3.48-9.987-3.094-9.767-2.761-9.5-2.427-9.234-2.134-8.927-1.88-8.58-1.627-8.234-1.395-7.9-1.181-7.58H4.5C4.046-8.754 3.513-9.78 2.899-10.66 2.286-11.54 1.553-12.28 .699-12.88-.154-13.48-1.147-13.927-2.28-14.22-3.414-14.513-4.728-14.66-6.221-14.66-7.607-14.66-8.867-14.473-10-14.1-11.134-13.727-12.101-13.16-12.9-12.4-13.7-11.64-14.32-10.7-14.761-9.58-15.2-8.46-15.42-7.154-15.42-5.66-15.42-4.007-15.154-2.414-14.62-.88-14.087 .653-13.334 2.013-12.36 3.2-11.387 4.386-10.194 5.333-8.78 6.04-7.367 6.746-5.78 7.1-4.021 7.1-2.58 7.1-1.268 6.913-.08 6.54 1.105 6.166 2.12 5.6 2.96 4.84 3.8 4.08 4.453 3.133 4.92 2 5.386 .866 5.62-.447 5.62-1.94 5.62-2.954 5.513-4.034 5.3-5.18H-9.94C-9.967-5.314-9.98-5.434-9.98-5.54" fill="#00a1e4"/>
<path transform="matrix(1,0,0,-1,349.7057,151.2059)" d="M0 0-3.28-15.52-3.2-15.6 4.96-7.88H11.96L2.68-15.72 8-28.56H1.76L-1.641-19.32-4.601-21.84-6-28.56H-11.641L-5.681 0Z" fill="#00a1e4"/>
<path transform="matrix(1,0,0,-1,376.4664,159.0858)" d="M0 0-.88-3.8H-4.92L-7.04-14.08C-7.094-14.294-7.134-14.487-7.16-14.66-7.187-14.834-7.2-14.96-7.2-15.04-7.2-15.414-7.141-15.7-7.021-15.9-6.9-16.1-6.747-16.254-6.561-16.36-6.374-16.467-6.167-16.527-5.94-16.54-5.714-16.554-5.494-16.56-5.28-16.56-4.587-16.56-3.907-16.52-3.24-16.44L-4.2-20.8C-4.787-20.854-5.374-20.9-5.96-20.94-6.547-20.98-7.147-21-7.76-21-8.427-21-9.087-20.94-9.74-20.82-10.394-20.7-10.98-20.487-11.5-20.18-12.021-19.874-12.434-19.454-12.74-18.92-13.047-18.387-13.188-17.694-13.16-16.84-13.16-16.574-13.134-16.274-13.08-15.94-13.027-15.607-12.96-15.254-12.88-14.88L-10.561-3.8H-14.28L-13.4 0H-9.76L-8.48 6.28H-2.8L-4.08 0Z" fill="#00a1e4"/>
<path transform="matrix(1,0,0,-1,385.8258,159.0858)" d="M0 0-.84-3.72-.76-3.8C-.12-2.36 .846-1.274 2.14-.54 3.433 .193 4.84 .56 6.359 .56 6.946 .56 7.533 .52 8.12 .44L6.96-5.08C6.56-5 6.16-4.92 5.76-4.84 5.359-4.76 4.96-4.72 4.56-4.72 3.466-4.72 2.54-4.907 1.779-5.28 1.02-5.654 .38-6.16-.141-6.8-.66-7.44-1.074-8.167-1.38-8.98-1.687-9.794-1.934-10.64-2.12-11.52L-4.04-20.68H-9.681L-5.4 0Z" fill="#00a1e4"/>
<path transform="matrix(1,0,0,-1,398.2857,173.1659)" d="M0 0C.173-.56 .434-1.054 .78-1.48 1.126-1.907 1.554-2.247 2.061-2.5 2.566-2.754 3.153-2.88 3.82-2.88 4.887-2.88 5.8-2.594 6.561-2.02 7.32-1.447 7.946-.727 8.44 .14 8.934 1.006 9.3 1.946 9.54 2.96 9.78 3.973 9.9 4.92 9.9 5.8 9.9 7.186 9.586 8.293 8.96 9.12 8.333 9.946 7.26 10.36 5.74 10.36 4.7 10.36 3.8 10.073 3.04 9.5 2.28 8.926 1.66 8.213 1.18 7.36 .7 6.506 .34 5.58 .101 4.58-.14 3.58-.26 2.64-.26 1.76-.26 1.146-.174 .56 0 0M-5.12 6.74C-4.573 8.3-3.787 9.666-2.76 10.84-1.733 12.013-.486 12.94 .98 13.62 2.446 14.3 4.101 14.64 5.94 14.64 7.354 14.64 8.653 14.46 9.84 14.1 11.026 13.74 12.047 13.2 12.9 12.48 13.753 11.76 14.413 10.853 14.88 9.76 15.347 8.666 15.58 7.373 15.58 5.88 15.58 4.066 15.307 2.366 14.76 .78 14.213-.807 13.42-2.187 12.38-3.36 11.34-4.534 10.08-5.454 8.601-6.12 7.12-6.786 5.434-7.12 3.54-7.12 .66-7.12-1.64-6.38-3.359-4.9-5.08-3.42-5.939-1.2-5.939 1.76-5.939 3.52-5.667 5.18-5.12 6.74" fill="#00a1e4"/>
<path transform="matrix(1,0,0,-1,431.3853,159.0858)" d="M0 0-.88-3.8H-4.92L-7.04-14.08C-7.094-14.294-7.134-14.487-7.16-14.66-7.187-14.834-7.2-14.96-7.2-15.04-7.2-15.414-7.141-15.7-7.021-15.9-6.9-16.1-6.747-16.254-6.561-16.36-6.374-16.467-6.167-16.527-5.94-16.54-5.714-16.554-5.494-16.56-5.28-16.56-4.587-16.56-3.907-16.52-3.24-16.44L-4.2-20.8C-4.787-20.854-5.374-20.9-5.96-20.94-6.547-20.98-7.147-21-7.76-21-8.427-21-9.087-20.94-9.74-20.82-10.394-20.7-10.98-20.487-11.5-20.18-12.021-19.874-12.434-19.454-12.74-18.92-13.047-18.387-13.188-17.694-13.16-16.84-13.16-16.574-13.134-16.274-13.08-15.94-13.027-15.607-12.96-15.254-12.88-14.88L-10.561-3.8H-14.28L-13.4 0H-9.76L-8.48 6.28H-2.8L-4.08 0Z" fill="#00a1e4"/>
<path transform="matrix(1,0,0,-1,447.3258,165.6258)" d="M0 0C-.094 .52-.274 .993-.54 1.42-.808 1.846-1.194 2.186-1.7 2.44-2.207 2.693-2.874 2.82-3.7 2.82-4.5 2.82-5.207 2.7-5.82 2.46-6.434 2.22-6.967 1.9-7.42 1.5-7.874 1.1-8.254 .633-8.561 .1-8.867-.434-9.127-.994-9.34-1.58H.14C.14-1.047 .093-.52 0 0M-9.98-5.54V-5.86-6.38C-9.98-7.58-9.607-8.554-8.86-9.3-8.114-10.047-6.967-10.42-5.42-10.42-4.86-10.42-4.36-10.334-3.92-10.16-3.48-9.987-3.094-9.767-2.761-9.5-2.427-9.234-2.134-8.927-1.88-8.58-1.627-8.234-1.395-7.9-1.181-7.58H4.5C4.046-8.754 3.513-9.78 2.899-10.66 2.286-11.54 1.553-12.28 .699-12.88-.154-13.48-1.147-13.927-2.28-14.22-3.414-14.513-4.728-14.66-6.221-14.66-7.607-14.66-8.867-14.473-10-14.1-11.134-13.727-12.101-13.16-12.9-12.4-13.7-11.64-14.32-10.7-14.761-9.58-15.2-8.46-15.42-7.154-15.42-5.66-15.42-4.007-15.154-2.414-14.62-.88-14.087 .653-13.334 2.013-12.36 3.2-11.387 4.386-10.194 5.333-8.78 6.04-7.367 6.746-5.78 7.1-4.021 7.1-2.58 7.1-1.268 6.913-.08 6.54 1.105 6.166 2.12 5.6 2.96 4.84 3.8 4.08 4.453 3.133 4.92 2 5.386 .866 5.62-.447 5.62-1.94 5.62-2.954 5.513-4.034 5.3-5.18H-9.94C-9.967-5.314-9.98-5.434-9.98-5.54" fill="#00a1e4"/>
<path transform="matrix(1,0,0,-1,469.7252,163.6058)" d="M0 0C-.627 .533-1.58 .8-2.86 .8-3.927 .8-4.834 .513-5.58-.06-6.327-.634-6.927-1.36-7.38-2.24-7.834-3.12-8.16-4.074-8.36-5.1-8.561-6.127-8.66-7.08-8.66-7.96-8.66-8.574-8.594-9.154-8.46-9.7-8.327-10.247-8.101-10.72-7.78-11.12-7.46-11.52-7.054-11.84-6.561-12.08-6.067-12.32-5.46-12.44-4.74-12.44-4.101-12.44-3.534-12.334-3.04-12.12-2.547-11.907-2.107-11.627-1.721-11.28-1.334-10.934-1.014-10.527-.76-10.06-.507-9.594-.3-9.107-.141-8.6H5.54C4.686-11.187 3.373-13.18 1.6-14.58-.174-15.98-2.42-16.68-5.141-16.68-8.047-16.68-10.307-15.967-11.92-14.54-13.534-13.114-14.34-10.88-14.34-7.84-14.34-6.08-14.08-4.42-13.561-2.86-13.04-1.3-12.28 .073-11.28 1.26-10.28 2.446-9.061 3.38-7.62 4.06-6.181 4.74-4.527 5.08-2.66 5.08-1.407 5.08-.221 4.933 .899 4.64 2.02 4.346 3 3.893 3.84 3.28 4.68 2.666 5.346 1.866 5.84 .88 6.333-.107 6.593-1.28 6.62-2.64H.939C.939-1.414 .626-.534 0 0" fill="#00a1e4"/>
<path transform="matrix(1,0,0,-1,488.9059,151.2059)" d="M0 0-2.12-10.28H-2.04C-1.827-9.987-1.521-9.667-1.12-9.32-.72-8.974-.24-8.654 .32-8.36 .88-8.067 1.533-7.82 2.28-7.62 3.026-7.42 3.866-7.32 4.8-7.32 8.826-7.32 10.84-9.174 10.84-12.88 10.84-13.094 10.813-13.367 10.76-13.7 10.706-14.034 10.646-14.374 10.58-14.72 10.513-15.067 10.446-15.394 10.38-15.7 10.313-16.007 10.266-16.254 10.24-16.44L7.68-28.56H2L4.52-16.44C4.573-16.12 4.646-15.694 4.74-15.16 4.833-14.627 4.88-14.214 4.88-13.92 4.88-13.307 4.593-12.8 4.02-12.4 3.446-12 2.826-11.8 2.16-11.8 1.306-11.8 .553-11.967-.101-12.3-.754-12.634-1.313-13.067-1.78-13.6-2.247-14.134-2.634-14.747-2.94-15.44-3.247-16.134-3.48-16.84-3.641-17.56L-5.96-28.56H-11.601L-5.68 0Z" fill="#00a1e4"/>
<path transform="matrix(1,0,0,-1,511.985,159.0858)" d="M0 0-.641-2.88H-.561C1.279-.587 3.692 .56 6.68 .56 10.706 .56 12.72-1.294 12.72-5 12.72-5.214 12.692-5.487 12.64-5.82 12.586-6.154 12.526-6.494 12.46-6.84 12.393-7.187 12.326-7.514 12.26-7.82 12.192-8.127 12.146-8.374 12.12-8.56L9.56-20.68H3.88L6.399-8.56C6.453-8.24 6.526-7.814 6.62-7.28 6.713-6.747 6.76-6.334 6.76-6.04 6.76-5.427 6.473-4.92 5.899-4.52 5.326-4.12 4.706-3.92 4.04-3.92 3.186-3.92 2.433-4.087 1.779-4.42 1.126-4.754 .566-5.187 .1-5.72-.367-6.254-.754-6.867-1.061-7.56-1.367-8.254-1.601-8.96-1.761-9.68L-4.08-20.68H-9.721L-5.44 0Z" fill="#00a1e4"/>
<path transform="matrix(1,0,0,-1,532.2242,155.8861)" d="M0 0 1.04 4.68H6.761L5.721 0ZM5.08-3.2 .681-23.88H-5L-.64-3.2Z" fill="#00a1e4"/>
<path transform="matrix(1,0,0,-1,551.8434,163.0658)" d="M0 0C-.493 .493-1.3 .74-2.42 .74-3.434 .74-4.267 .586-4.92 .28-5.573-.027-5.899-.554-5.899-1.3-5.899-1.754-5.707-2.14-5.319-2.46-4.934-2.78-4.26-3.087-3.3-3.38L-.46-4.3C.313-4.54 1.026-4.82 1.681-5.14 2.333-5.46 2.906-5.854 3.4-6.32 3.894-6.787 4.28-7.34 4.561-7.98 4.84-8.62 4.98-9.367 4.98-10.22 4.98-11.5 4.693-12.587 4.12-13.48 3.547-14.374 2.793-15.1 1.86-15.66 .927-16.22-.127-16.62-1.3-16.86-2.474-17.1-3.66-17.22-4.859-17.22-5.874-17.22-6.899-17.113-7.939-16.9-8.979-16.687-9.92-16.334-10.76-15.84-11.6-15.347-12.287-14.694-12.819-13.88-13.353-13.067-13.62-12.047-13.62-10.82V-9.98H-8.38V-10.66C-8.38-11.14-8.26-11.554-8.02-11.9-7.78-12.247-7.467-12.534-7.08-12.76-6.693-12.987-6.254-13.16-5.76-13.28-5.267-13.4-4.78-13.46-4.3-13.46-3.874-13.46-3.446-13.42-3.02-13.34-2.594-13.26-2.207-13.12-1.859-12.92-1.514-12.72-1.233-12.467-1.02-12.16-.807-11.854-.7-11.46-.7-10.98-.7-10.26-.887-9.754-1.26-9.46-1.634-9.167-2.127-8.914-2.74-8.7L-7.1-7.3C-7.819-7.06-8.453-6.807-9-6.54-9.547-6.274-10.014-5.94-10.399-5.54-10.787-5.14-11.08-4.66-11.28-4.1-11.479-3.54-11.58-2.847-11.58-2.02-11.58-.794-11.294 .233-10.72 1.06-10.146 1.886-9.406 2.56-8.5 3.08-7.594 3.6-6.6 3.973-5.52 4.2-4.439 4.426-3.406 4.54-2.42 4.54-1.3 4.54-.22 4.446 .82 4.26 1.86 4.073 2.773 3.733 3.561 3.24 4.347 2.746 4.967 2.073 5.42 1.22 5.873 .366 6.087-.727 6.061-2.06H.78C.753-1.18 .493-.494 0 0" fill="#00a1e4"/>
<path transform="matrix(1,0,0,-1,574.5641,163.6058)" d="M0 0C-.627 .533-1.58 .8-2.86 .8-3.927 .8-4.834 .513-5.58-.06-6.327-.634-6.927-1.36-7.38-2.24-7.834-3.12-8.16-4.074-8.36-5.1-8.561-6.127-8.66-7.08-8.66-7.96-8.66-8.574-8.594-9.154-8.46-9.7-8.327-10.247-8.101-10.72-7.78-11.12-7.46-11.52-7.054-11.84-6.561-12.08-6.067-12.32-5.46-12.44-4.74-12.44-4.101-12.44-3.534-12.334-3.04-12.12-2.547-11.907-2.107-11.627-1.721-11.28-1.334-10.934-1.014-10.527-.76-10.06-.507-9.594-.3-9.107-.141-8.6H5.54C4.686-11.187 3.373-13.18 1.6-14.58-.174-15.98-2.42-16.68-5.141-16.68-8.047-16.68-10.307-15.967-11.92-14.54-13.534-13.114-14.34-10.88-14.34-7.84-14.34-6.08-14.08-4.42-13.561-2.86-13.04-1.3-12.28 .073-11.28 1.26-10.28 2.446-9.061 3.38-7.62 4.06-6.181 4.74-4.527 5.08-2.66 5.08-1.407 5.08-.221 4.933 .899 4.64 2.02 4.346 3 3.893 3.84 3.28 4.68 2.666 5.346 1.866 5.84 .88 6.333-.107 6.593-1.28 6.62-2.64H.939C.939-1.414 .626-.534 0 0" fill="#00a1e4"/>
<path transform="matrix(1,0,0,-1,593.7438,151.2059)" d="M0 0-2.12-10.28H-2.04C-1.827-9.987-1.521-9.667-1.12-9.32-.72-8.974-.24-8.654 .32-8.36 .88-8.067 1.533-7.82 2.28-7.62 3.026-7.42 3.866-7.32 4.8-7.32 8.826-7.32 10.84-9.174 10.84-12.88 10.84-13.094 10.813-13.367 10.76-13.7 10.706-14.034 10.646-14.374 10.58-14.72 10.513-15.067 10.446-15.394 10.38-15.7 10.313-16.007 10.266-16.254 10.24-16.44L7.68-28.56H2L4.52-16.44C4.573-16.12 4.646-15.694 4.74-15.16 4.833-14.627 4.88-14.214 4.88-13.92 4.88-13.307 4.593-12.8 4.02-12.4 3.446-12 2.826-11.8 2.16-11.8 1.306-11.8 .553-11.967-.101-12.3-.754-12.634-1.313-13.067-1.78-13.6-2.247-14.134-2.634-14.747-2.94-15.44-3.247-16.134-3.48-16.84-3.641-17.56L-5.96-28.56H-11.601L-5.68 0Z" fill="#00a1e4"/>
<path transform="matrix(1,0,0,-1,623.3639,165.6258)" d="M0 0C-.094 .52-.274 .993-.54 1.42-.808 1.846-1.194 2.186-1.7 2.44-2.207 2.693-2.874 2.82-3.7 2.82-4.5 2.82-5.207 2.7-5.82 2.46-6.434 2.22-6.967 1.9-7.42 1.5-7.874 1.1-8.254 .633-8.561 .1-8.867-.434-9.127-.994-9.34-1.58H.14C.14-1.047 .093-.52 0 0M-9.98-5.54V-5.86-6.38C-9.98-7.58-9.607-8.554-8.86-9.3-8.114-10.047-6.967-10.42-5.42-10.42-4.86-10.42-4.36-10.334-3.92-10.16-3.48-9.987-3.094-9.767-2.761-9.5-2.427-9.234-2.134-8.927-1.88-8.58-1.627-8.234-1.395-7.9-1.181-7.58H4.5C4.046-8.754 3.513-9.78 2.899-10.66 2.286-11.54 1.553-12.28 .699-12.88-.154-13.48-1.147-13.927-2.28-14.22-3.414-14.513-4.728-14.66-6.221-14.66-7.607-14.66-8.867-14.473-10-14.1-11.134-13.727-12.101-13.16-12.9-12.4-13.7-11.64-14.32-10.7-14.761-9.58-15.2-8.46-15.42-7.154-15.42-5.66-15.42-4.007-15.154-2.414-14.62-.88-14.087 .653-13.334 2.013-12.36 3.2-11.387 4.386-10.194 5.333-8.78 6.04-7.367 6.746-5.78 7.1-4.021 7.1-2.58 7.1-1.268 6.913-.08 6.54 1.105 6.166 2.12 5.6 2.96 4.84 3.8 4.08 4.453 3.133 4.92 2 5.386 .866 5.62-.447 5.62-1.94 5.62-2.954 5.513-4.034 5.3-5.18H-9.94C-9.967-5.314-9.98-5.434-9.98-5.54" fill="#00a1e4"/>
<path transform="matrix(1,0,0,-1,663.5436,179.766)" d="M0 0-.72 20.4H-.8L-9.68 0H-16L-17.96 28.56H-11.68L-11.28 7.64H-11.2L-2.16 28.56H3.84L4.561 7.72H4.64L13.36 28.56H19.64L6.24 0Z" fill="#00a1e4"/>
<path transform="matrix(1,0,0,-1,694.484,165.6258)" d="M0 0C-.094 .52-.274 .993-.54 1.42-.808 1.846-1.194 2.186-1.7 2.44-2.207 2.693-2.874 2.82-3.7 2.82-4.5 2.82-5.207 2.7-5.82 2.46-6.434 2.22-6.967 1.9-7.42 1.5-7.874 1.1-8.254 .633-8.561 .1-8.867-.434-9.127-.994-9.34-1.58H.14C.14-1.047 .093-.52 0 0M-9.98-5.54V-5.86-6.38C-9.98-7.58-9.607-8.554-8.86-9.3-8.114-10.047-6.967-10.42-5.42-10.42-4.86-10.42-4.36-10.334-3.92-10.16-3.48-9.987-3.094-9.767-2.761-9.5-2.427-9.234-2.134-8.927-1.88-8.58-1.627-8.234-1.395-7.9-1.181-7.58H4.5C4.046-8.754 3.513-9.78 2.899-10.66 2.286-11.54 1.553-12.28 .699-12.88-.154-13.48-1.147-13.927-2.28-14.22-3.414-14.513-4.728-14.66-6.221-14.66-7.607-14.66-8.867-14.473-10-14.1-11.134-13.727-12.101-13.16-12.9-12.4-13.7-11.64-14.32-10.7-14.761-9.58-15.2-8.46-15.42-7.154-15.42-5.66-15.42-4.007-15.154-2.414-14.62-.88-14.087 .653-13.334 2.013-12.36 3.2-11.387 4.386-10.194 5.333-8.78 6.04-7.367 6.746-5.78 7.1-4.021 7.1-2.58 7.1-1.268 6.913-.08 6.54 1.105 6.166 2.12 5.6 2.96 4.84 3.8 4.08 4.453 3.133 4.92 2 5.386 .866 5.62-.447 5.62-1.94 5.62-2.954 5.513-4.034 5.3-5.18H-9.94C-9.967-5.314-9.98-5.434-9.98-5.54" fill="#00a1e4"/>
<path transform="matrix(1,0,0,-1,711.3844,159.0858)" d="M0 0-.84-3.72-.76-3.8C-.12-2.36 .846-1.274 2.14-.54 3.433 .193 4.84 .56 6.359 .56 6.946 .56 7.533 .52 8.12 .44L6.96-5.08C6.56-5 6.16-4.92 5.76-4.84 5.359-4.76 4.96-4.72 4.56-4.72 3.466-4.72 2.54-4.907 1.779-5.28 1.02-5.654 .38-6.16-.141-6.8-.66-7.44-1.074-8.167-1.38-8.98-1.687-9.794-1.934-10.64-2.12-11.52L-4.04-20.68H-9.681L-5.4 0Z" fill="#00a1e4"/>
<path transform="matrix(1,0,0,-1,729.4235,151.2059)" d="M0 0-3.28-15.52-3.2-15.6 4.96-7.88H11.96L2.68-15.72 8-28.56H1.76L-1.641-19.32-4.601-21.84-6-28.56H-11.641L-5.681 0Z" fill="#00a1e4"/>
<path transform="matrix(1,0,0,-1,756.8043,165.6258)" d="M0 0C-.094 .52-.274 .993-.54 1.42-.808 1.846-1.194 2.186-1.7 2.44-2.207 2.693-2.874 2.82-3.7 2.82-4.5 2.82-5.207 2.7-5.82 2.46-6.434 2.22-6.967 1.9-7.42 1.5-7.874 1.1-8.254 .633-8.561 .1-8.867-.434-9.127-.994-9.34-1.58H.14C.14-1.047 .093-.52 0 0M-9.98-5.54V-5.86-6.38C-9.98-7.58-9.607-8.554-8.86-9.3-8.114-10.047-6.967-10.42-5.42-10.42-4.86-10.42-4.36-10.334-3.92-10.16-3.48-9.987-3.094-9.767-2.761-9.5-2.427-9.234-2.134-8.927-1.88-8.58-1.627-8.234-1.395-7.9-1.181-7.58H4.5C4.046-8.754 3.513-9.78 2.899-10.66 2.286-11.54 1.553-12.28 .699-12.88-.154-13.48-1.147-13.927-2.28-14.22-3.414-14.513-4.728-14.66-6.221-14.66-7.607-14.66-8.867-14.473-10-14.1-11.134-13.727-12.101-13.16-12.9-12.4-13.7-11.64-14.32-10.7-14.761-9.58-15.2-8.46-15.42-7.154-15.42-5.66-15.42-4.007-15.154-2.414-14.62-.88-14.087 .653-13.334 2.013-12.36 3.2-11.387 4.386-10.194 5.333-8.78 6.04-7.367 6.746-5.78 7.1-4.021 7.1-2.58 7.1-1.268 6.913-.08 6.54 1.105 6.166 2.12 5.6 2.96 4.84 3.8 4.08 4.453 3.133 4.92 2 5.386 .866 5.62-.447 5.62-1.94 5.62-2.954 5.513-4.034 5.3-5.18H-9.94C-9.967-5.314-9.98-5.434-9.98-5.54" fill="#00a1e4"/>
<path transform="matrix(1,0,0,-1,168.2023,80.617099)" d="M0 0C-48.939 0-88.614-39.673-88.614-88.614-88.614-116.157-76.043-140.771-56.33-157.023L-60.662-183.82-53.38-159.34C-38.534-170.563-20.048-177.229 0-177.229 48.939-177.229 88.614-137.556 88.614-88.614 88.614-39.673 48.939 0 0 0M0-165.511C-18.989-165.511-36.356-158.611-49.772-147.208L-23.512-58.912H-51.437L-51.439-41.179-64.655-78.698H-43.66L-54.1-143.25C-68.174-129.311-76.897-109.986-76.897-88.614-76.897-46.144-42.468-11.718 0-11.718 42.468-11.718 76.897-46.144 76.897-88.614 76.897-131.087 42.468-165.511 0-165.511M-9.318-79.059-14.682-98.896H-10.358C-10.358-98.896-6.491-84.599-6.199-83.513H-.835C-1.127-84.599-4.995-98.896-4.995-98.896H-.669L4.695-79.059ZM54.163-79.059 48.797-98.896H53.123C53.123-98.896 56.988-84.599 57.283-83.513H62.646C62.352-84.599 58.487-98.896 58.487-98.896H62.81L68.174-79.059ZM-24.374-79.059-25.578-83.513H-17.035C-17.236-84.261-17.714-86.027-17.916-86.777H-26.459L-29.737-98.896H-16.871L-11.507-79.059ZM-19.993-94.458H-24.213C-24.011-93.71-23.536-91.961-23.334-91.213H-19.117C-19.319-91.961-19.791-93.71-19.993-94.458M9.283-86.777C9.49-86.027 9.965-84.261 10.167-83.513H19.281L20.485-79.059H7.045L3.756-91.213H12.856C12.654-91.961 12.182-93.71 11.98-94.458H2.88L1.679-98.896H15.121L18.396-86.777ZM48.715-91.194 51.996-79.059H39.129L33.766-98.896H46.633L47.845-94.404H39.307C39.509-93.658 39.973-91.939 40.172-91.194ZM42.249-83.513H46.466C46.267-84.266 45.781-86.062 45.574-86.813H41.357C41.564-86.062 42.05-84.266 42.249-83.513M25.327-86.777C25.526-86.027 26.003-84.261 26.208-83.513H35.322L36.528-79.059H23.086L19.799-91.213H28.897C28.697-91.961 28.22-93.71 28.021-94.458H18.923L17.722-98.896H31.162L34.44-86.777Z" fill="#00a1e4"/>
</g>
</g>
</svg>
